<?xml version="1.0" encoding="UTF-8"?>
<svg id="_レイヤー_2" data-name="レイヤー 2" xmlns="http://www.w3.org/2000/svg" viewBox="0 0 111 36.63">
  <defs>
    <style>
      .cls-1 {
        fill: #73c121;
      }
    </style>
  </defs>
  <g id="_レイヤー_1-2" data-name="レイヤー 1">
    <g>
      <path d="m17.71,10.67h-5.16v-1.16c0-1.18-.28-2.2-.83-3.06-.56-.86-1.49-1.29-2.81-1.29-.71,0-1.28.13-1.72.4s-.79.61-1.06,1.01c-.27.44-.45.94-.56,1.49s-.15,1.14-.15,1.75c0,.71.02,1.3.08,1.77.05.47.18.89.38,1.26.2.37.5.69.89.96s.92.54,1.6.81l3.94,1.57c1.15.44,2.08.95,2.79,1.54s1.26,1.27,1.67,2.05c.37.81.63,1.73.76,2.76.13,1.03.2,2.2.2,3.52,0,1.52-.15,2.92-.45,4.22-.31,1.3-.79,2.4-1.47,3.31-.71.94-1.64,1.68-2.78,2.22-1.15.54-2.55.81-4.2.81-1.25,0-2.41-.22-3.49-.66s-2-1.04-2.78-1.82-1.39-1.68-1.85-2.71c-.45-1.03-.68-2.15-.68-3.36v-1.92h5.16v1.62c0,.94.28,1.8.83,2.56.56.76,1.49,1.14,2.81,1.14.88,0,1.56-.12,2.05-.38.49-.25.87-.62,1.14-1.09.27-.47.43-1.04.48-1.7.05-.66.07-1.39.07-2.2,0-.94-.03-1.72-.1-2.33-.07-.61-.2-1.1-.4-1.47-.24-.37-.55-.67-.94-.91-.39-.24-.9-.49-1.55-.76l-3.69-1.52c-2.22-.91-3.72-2.11-4.47-3.62-.76-1.5-1.14-3.38-1.14-5.64,0-1.35.18-2.63.56-3.84s.93-2.26,1.67-3.14c.71-.88,1.61-1.57,2.7-2.1s2.4-.79,3.92-.79c1.28,0,2.45.24,3.52.71,1.06.47,1.98,1.1,2.76,1.87,1.55,1.62,2.33,3.47,2.33,5.57v2.53Z"/>
      <path d="m21.55,36.33V.3h7.74c1.42,0,2.67.19,3.75.56,1.08.37,2.06,1.03,2.93,1.98.88.94,1.48,2.05,1.82,3.31.34,1.26.5,2.98.5,5.14,0,1.62-.09,2.98-.28,4.1-.18,1.11-.58,2.16-1.19,3.14-.71,1.18-1.65,2.1-2.83,2.76s-2.73.99-4.65.99h-2.63v14.06h-5.16Zm5.16-31.16v12.24h2.48c1.04,0,1.85-.15,2.43-.45.57-.3.99-.72,1.26-1.26.27-.51.43-1.13.48-1.87.05-.74.08-1.57.08-2.48,0-.84-.02-1.64-.05-2.4-.03-.76-.18-1.42-.45-2s-.67-1.01-1.21-1.32-1.31-.45-2.33-.45h-2.68Z"/>
      <path d="m41.79,36.33V.3h5.16v36.02h-5.16Z"/>
      <path d="m51.25,36.33V.3h4.96l7.79,21.7h.1V.3h5.16v36.02h-4.85l-7.89-21.66h-.1v21.66h-5.16Z"/>
      <path d="m73.92,36.33V.3h15.38v4.86h-10.22v10.57h8.9v4.86h-8.9v10.57h10.22v5.16h-15.38Z"/>
      <path class="cls-1" d="m91.12,36.33l7.29-18.87L91.67.3h5.46l3.9,10.67,3.95-10.67h5.46l-6.88,17.15,7.44,18.87h-5.46l-4.5-12.14-4.45,12.14h-5.46Zm9.92-25.35l3.95-10.67"/>
    </g>
  </g>
</svg>