<?xml version="1.0" encoding="UTF-8"?>
<svg id="_レイヤー_2" data-name="レイヤー 2" xmlns="http://www.w3.org/2000/svg" viewBox="0 0 252 83.16">
  <defs>
    <style>
      .cls-1 {
        fill: #fff;
      }

      .cls-2 {
        fill: #73c121;
      }
    </style>
  </defs>
  <g id="_レイヤー_1-2" data-name="レイヤー 1">
    <g>
      <path class="cls-1" d="m40.2,24.23h-11.72v-2.64c0-2.68-.63-5-1.89-6.95-1.26-1.95-3.39-2.92-6.37-2.92-1.62,0-2.92.31-3.91.92s-1.8,1.37-2.41,2.29c-.61.99-1.03,2.13-1.26,3.39s-.34,2.58-.34,3.96c0,1.61.06,2.94.18,4.02.11,1.07.4,2.02.85,2.87.46.84,1.13,1.57,2.01,2.18s2.08,1.23,3.62,1.84l8.95,3.57c2.61.99,4.72,2.16,6.32,3.5s2.87,2.89,3.79,4.65c.84,1.84,1.42,3.93,1.73,6.26.3,2.34.45,5,.45,7.98,0,3.44-.34,6.64-1.03,9.59-.7,2.94-1.8,5.45-3.33,7.52-1.61,2.14-3.71,3.83-6.31,5.05-2.61,1.23-5.78,1.84-9.54,1.84-2.83,0-5.48-.5-7.93-1.49s-4.55-2.37-6.31-4.13-3.16-3.81-4.2-6.15c-1.03-2.33-1.55-4.88-1.55-7.63v-4.36h11.72v3.67c0,2.14.63,4.09,1.89,5.8,1.26,1.73,3.39,2.58,6.38,2.58,1.99,0,3.54-.28,4.65-.85,1.1-.58,1.97-1.4,2.58-2.47.61-1.08.97-2.36,1.1-3.85.11-1.49.17-3.16.17-5,0-2.14-.07-3.9-.22-5.28-.16-1.37-.46-2.49-.92-3.33-.54-.84-1.25-1.53-2.13-2.06-.88-.54-2.05-1.11-3.51-1.73l-8.38-3.44c-5.05-2.07-8.44-4.8-10.16-8.21-1.73-3.41-2.59-7.68-2.59-12.81,0-3.06.42-5.97,1.26-8.73s2.11-5.13,3.8-7.12c1.61-1.99,3.65-3.57,6.14-4.76s5.46-1.78,8.9-1.78c2.91,0,5.57.54,7.98,1.61,2.41,1.08,4.49,2.49,6.26,4.25,3.52,3.68,5.28,7.88,5.28,12.64v5.74Z"/>
      <path class="cls-1" d="m48.93,82.47V.69h17.57c3.22,0,6.05.43,8.5,1.26,2.45.84,4.67,2.34,6.66,4.48,2,2.14,3.37,4.65,4.14,7.52.76,2.87,1.14,6.76,1.14,11.66,0,3.67-.2,6.77-.63,9.3-.42,2.53-1.32,4.89-2.69,7.12-1.62,2.67-3.75,4.76-6.43,6.26s-6.2,2.24-10.57,2.24h-5.97v31.93h-11.72ZM60.65,11.72v27.79h5.63c2.37,0,4.21-.34,5.52-1.03,1.3-.69,2.26-1.64,2.87-2.87.61-1.15.97-2.56,1.09-4.25.12-1.68.18-3.56.18-5.63,0-1.91-.04-3.73-.12-5.46-.07-1.72-.42-3.23-1.03-4.53s-1.53-2.3-2.76-2.99-2.98-1.03-5.28-1.03h-6.08Z"/>
      <path class="cls-1" d="m94.87,82.47V.69h11.72v81.78h-11.72Z"/>
      <path class="cls-1" d="m116.36,82.47V.69h11.26l17.69,49.27h.22V.69h11.72v81.78h-11.02l-17.92-49.16h-.23v49.16h-11.72Z"/>
      <path class="cls-1" d="m167.81,82.47V.69h34.91v11.03h-23.19v24h20.21v11.03h-20.21v24h23.19v11.72h-34.91Z"/>
      <path class="cls-2" d="m206.86,82.47l16.55-42.84L208.12.69h12.4l8.85,24.23L238.33.69h12.4l-15.63,38.94,16.89,42.84h-12.4l-10.22-27.57-10.11,27.57h-12.4Zm22.52-57.55L238.33.69"/>
    </g>
  </g>
</svg>