<?xml version="1.0" encoding="UTF-8"?>
<svg id="_レイヤー_2" data-name="レイヤー 2" xmlns="http://www.w3.org/2000/svg" width="212.04" height="69.97" viewBox="0 0 212.04 69.97">
  <defs>
    <style>
      .cls-1 {
        fill: #73c121;
      }
    </style>
  </defs>
  <g id="_レイヤー_1-2" data-name="レイヤー 1">
    <g>
      <path d="m33.83,20.39h-9.86v-2.22c0-2.26-.53-4.2-1.59-5.85-1.06-1.64-2.85-2.46-5.36-2.46-1.36,0-2.45.26-3.29.77s-1.52,1.16-2.03,1.93c-.52.84-.87,1.79-1.06,2.85s-.29,2.17-.29,3.34c0,1.35.05,2.48.15,3.38.09.9.34,1.7.72,2.41.39.71.95,1.32,1.7,1.84s1.75,1.03,3.05,1.55l7.53,3c2.2.84,3.97,1.82,5.32,2.95s2.41,2.43,3.19,3.91c.71,1.55,1.2,3.3,1.45,5.27.25,1.97.38,4.2.38,6.72,0,2.9-.29,5.59-.87,8.07-.59,2.48-1.52,4.59-2.8,6.33-1.35,1.8-3.12,3.22-5.31,4.25-2.2,1.03-4.87,1.55-8.02,1.55-2.38,0-4.61-.42-6.67-1.26s-3.83-1.99-5.31-3.48-2.66-3.2-3.53-5.17c-.87-1.96-1.3-4.11-1.3-6.42v-3.67h9.86v3.09c0,1.8.53,3.44,1.59,4.88,1.06,1.45,2.85,2.17,5.37,2.17,1.67,0,2.98-.23,3.91-.72.93-.48,1.66-1.18,2.17-2.08.52-.91.82-1.98.92-3.24.09-1.26.14-2.66.14-4.2,0-1.8-.06-3.28-.19-4.45-.13-1.16-.39-2.09-.77-2.8-.45-.7-1.05-1.29-1.79-1.73-.74-.45-1.73-.94-2.95-1.45l-7.05-2.9c-4.25-1.74-7.1-4.04-8.55-6.91-1.45-2.87-2.18-6.46-2.18-10.78,0-2.58.35-5.02,1.06-7.34s1.77-4.31,3.2-5.99c1.35-1.67,3.07-3.01,5.16-4.01s4.59-1.5,7.49-1.5c2.45,0,4.69.45,6.72,1.35,2.03.91,3.78,2.09,5.27,3.58,2.96,3.09,4.45,6.63,4.45,10.63v4.83Z"/>
      <path d="m41.17,69.39V.58h14.78c2.71,0,5.09.36,7.16,1.06,2.06.71,3.93,1.97,5.6,3.77,1.68,1.8,2.84,3.91,3.48,6.33.64,2.41.96,5.69.96,9.81,0,3.09-.17,5.7-.53,7.83-.35,2.12-1.11,4.12-2.27,5.99-1.36,2.25-3.16,4.01-5.41,5.27s-5.22,1.88-8.89,1.88h-5.02v26.87h-9.86Zm9.86-59.53v23.38h4.73c1.99,0,3.54-.29,4.64-.87,1.09-.58,1.9-1.38,2.41-2.41.52-.97.82-2.16.91-3.58.1-1.41.15-2.99.15-4.73,0-1.61-.03-3.14-.1-4.59-.06-1.45-.35-2.72-.87-3.81s-1.29-1.94-2.32-2.52-2.51-.87-4.45-.87h-5.12Z"/>
      <path d="m79.83,69.39V.58h9.86v68.81h-9.86Z"/>
      <path d="m97.91,69.39V.58h9.48l14.88,41.46h.19V.58h9.86v68.81h-9.27l-15.08-41.37h-.2v41.37h-9.86Z"/>
      <path d="m141.2,69.39V.58h29.38v9.28h-19.52v20.2h17.01v9.28h-17.01v20.2h19.52v9.86h-29.38Z"/>
      <path class="cls-1" d="m174.05,69.39l13.92-36.05L175.12.58h10.44l7.45,20.39,7.54-20.39h10.44l-13.15,32.77,14.21,36.05h-10.44l-8.6-23.2-8.51,23.2h-10.44Zm18.95-48.42l7.54-20.39"/>
    </g>
  </g>
</svg>